<svg xmlns="http://www.w3.org/2000/svg" viewBox="0 0 32 32" id="elephant">
  <path fill="#faf7f5" d="M19.3 12.75S22.21 20.31 28 23c0 0-8.6 2.33-11.35-6.29zm-6.64 0S9.75 20.31 4 23c0 0 8.59 2.33 11.34-6.29z"></path>
  <path fill="#80b6ff" d="m20 6.46 4.64-4a2 2 0 0 1 1.3-.46H28a2 2 0 0 1 2 2v14l-3.24-.75a4 4 0 0 1-2.44-1.7L21 10.42zm-8 0-4.64-4A2 2 0 0 0 6.06 2H4a2 2 0 0 0-2 2v14l3.24-.75a4 4 0 0 0 2.44-1.7l3.37-5.13z"></path>
  <path fill="#80b6ff" d="M23.05 6.49 22 4.91A2 2 0 0 0 20.35 4h-8.7a2 2 0 0 0-1.65.91L9 6.49a4 4 0 0 0-.51 3.18l1.5 5.8A4 4 0 0 0 13 18.39l.26.05L14 30h4l.73-11.56.26-.05a4 4 0 0 0 3.07-2.92l1.5-5.8a4 4 0 0 0-.51-3.18Z"></path>
  <path fill="#6d6daa" d="M28 1h-2.06a3 3 0 0 0-2 .72l-2 1.76A3 3 0 0 0 20.35 3h-8.7a3 3 0 0 0-1.59.48L8 1.72A3 3 0 0 0 6.06 1H4a3 3 0 0 0-3 3v14a1 1 0 0 0 .38.78A1 1 0 0 0 2 19a.91.91 0 0 0 .23 0l3.24-.75a5 5 0 0 0 3-2.12l.4-.61.06.23a4.94 4.94 0 0 0 .4 1 15.39 15.39 0 0 1-5.79 5.36 1 1 0 0 0-.58 1 1 1 0 0 0 .74.87 11 11 0 0 0 2.83.33 10.2 10.2 0 0 0 5.95-1.8l.52 7.55a1 1 0 0 0 1 .94h4a1 1 0 0 0 1-.94l.48-7.54a10.16 10.16 0 0 0 5.91 1.77 11 11 0 0 0 2.83-.29 1 1 0 0 0 .73-.87 1 1 0 0 0-.57-1 15.2 15.2 0 0 1-5.76-5.32 5.33 5.33 0 0 0 .41-1l.06-.23.4.61a5 5 0 0 0 3 2.12l3.24.75A.91.91 0 0 0 30 19a1 1 0 0 0 .62-.22A1 1 0 0 0 31 18V4a3 3 0 0 0-3-3ZM6.84 15A2.93 2.93 0 0 1 5 16.27l-2 .47V4a1 1 0 0 1 1-1h2.06a1 1 0 0 1 .65.24L8.74 5l-.63 1a5.8 5.8 0 0 0-.33.66 3.08 3.08 0 0 0-3.87 2.5v.24a1 1 0 0 0 .83 1.14h.16a1 1 0 0 0 1-.85v-.24a1.08 1.08 0 0 1 1.45-.85 5.23 5.23 0 0 0 .13 1.36l.77 3ZM7 22.29a19.37 19.37 0 0 0 3.65-3.94 5 5 0 0 0 1.64.89v.74A7.71 7.71 0 0 1 7 22.29ZM17 29h-2.06l-.68-10.62a1 1 0 0 0-.79-.92l-.26-.05a3 3 0 0 1-2.3-2.19l-1.5-5.8A3 3 0 0 1 9.79 7l1-1.58a1 1 0 0 1 .86-.42h8.7a1 1 0 0 1 .84.46l1 1.58a3 3 0 0 1 .38 2.38l-1.5 5.8a3 3 0 0 1-2.3 2.19l-.26.05a1 1 0 0 0-.79.92Zm7.88-6.71A7.7 7.7 0 0 1 19.64 20l.05-.78a5 5 0 0 0 1.61-.87 18.93 18.93 0 0 0 3.64 3.94ZM29 16.74l-2-.47A2.93 2.93 0 0 1 25.16 15l-1.4-2.12.77-3a5.23 5.23 0 0 0 .13-1.36 1.08 1.08 0 0 1 1.45.85v.24a1 1 0 0 0 1 .85h.16a1 1 0 0 0 .83-1.14v-.24a3.08 3.08 0 0 0-3.87-2.5 5.8 5.8 0 0 0-.34-.58l-.63-1 2-1.74a1 1 0 0 1 .68-.26H28a1 1 0 0 1 1 1Z"></path>
  <path fill="#6d6daa" d="M12.5 8a1 1 0 0 0-1 1v.5a1 1 0 0 0 2 0V9a1 1 0 0 0-1-1zm7 2.5a1 1 0 0 0 1-1V9a1 1 0 0 0-2 0v.5a1 1 0 0 0 1 1z"></path>
</svg>
