<svg xmlns="http://www.w3.org/2000/svg" viewBox="0 0 64 64" id="giraffe">
  <g>
    <path fill="#ef6c00" d="M38,52.36a1,1,0,0,0-1.49-.75A3,3,0,0,1,35,52H29a3,3,0,0,1-1.47-.39,1,1,0,0,0-1.49.75A5.25,5.25,0,0,0,26,53a6,6,0,0,0,12,0A5.45,5.45,0,0,0,38,52.36Z"></path>
    <path fill="#f57c00" d="M56.8 7.4a1 1 0 0 0-1-.38l-4.4.8a15.12 15.12 0 0 0-10.55 7.56h0l-1.74 3.14A1 1 0 0 0 39.9 20l4.58.46q.44 0 .87 0a9 9 0 0 0 8-4.92l3.57-7.13A1 1 0 0 0 56.8 7.4zM23.13 15.38A15.12 15.12 0 0 0 12.58 7.82L8.18 7A1 1 0 0 0 7.11 8.45l3.57 7.13a9 9 0 0 0 8 4.92 8.73 8.73 0 0 0 .87 0L24.1 20a1 1 0 0 0 .77-1.48z"></path>
    <path fill="#ff9800" d="M44,27a11.89,11.89,0,0,1-1.61,6c-.91,1.58-1.65,5.47-2.09,10.94C40.06,46.76,40,49,40,49a5,5,0,0,1-5,5H29a5,5,0,0,1-5-5s0-2.27-.27-5.11c-.41-5.44-1.12-9.24-2-10.69a11.88,11.88,0,0,1-1.66-7.45,11.67,11.67,0,0,1,2.69-6.35A12.6,12.6,0,0,1,24,18.1V8a3,3,0,0,1,3-3,3,3,0,0,1,3,3v7.18A10.94,10.94,0,0,1,31.5,15a12.27,12.27,0,0,1,2.5.16V8a3,3,0,0,1,3-3,3,3,0,0,1,3,3V18.07a14.14,14.14,0,0,1,1.26,1.31A12,12,0,0,1,44,27Z"></path>
    <path fill="#ffcc80" d="M41.26 19.38a1 1 0 0 0-1.42-.12A17.43 17.43 0 0 0 34 32.5a17.66 17.66 0 0 0 4.57 12 1 1 0 0 0 1.73-.6c.44-5.47 1.18-9.36 2.1-10.94a12 12 0 0 0-1.13-13.6zM24.18 19.28a1 1 0 0 0-1.41.12 11.76 11.76 0 0 0-2.7 6.35 12 12 0 0 0 1.66 7.45c.88 1.45 1.6 5.25 2 10.69a1 1 0 0 0 1.73.61A17.69 17.69 0 0 0 30 32.5 17.2 17.2 0 0 0 24.18 19.28z"></path>
    <path fill="#3e2723" d="M30 50a1 1 0 0 1-1-1V48a1 1 0 0 1 2 0v1A1 1 0 0 1 30 50zM34 50a1 1 0 0 1-1-1V48a1 1 0 0 1 2 0v1A1 1 0 0 1 34 50zM24 29a1 1 0 0 1 0-2h0a1 1 0 1 1 0 2zM40 29a1 1 0 0 1 0-2h0a1 1 0 1 1 0 2z"></path>
    <path fill="#a1887f" d="M30 8v3a.25.25 0 0 1-.12 0h-5.5a.64.64 0 0 1-.38-.14V8a3 3 0 0 1 3-3A3 3 0 0 1 30 8zM40 8v2.86a.64.64 0 0 1-.38.14h-5.5A.25.25 0 0 1 34 11V8a3 3 0 0 1 3-3A3 3 0 0 1 40 8z"></path>
  </g>
</svg>
